<?xml version="1.0" standalone="no"?><!DOCTYPE svg PUBLIC "-//W3C//DTD SVG 1.1//EN" "http://www.w3.org/Graphics/SVG/1.1/DTD/svg11.dtd"><svg class="icon" width="200px" height="200.00px" viewBox="0 0 1024 1024" version="1.1" xmlns="http://www.w3.org/2000/svg"><path d="M115.4048 472.6272L230.4 544.7168c2.2528 1.4336 5.2224 0.8192 6.7584-1.4336L292.352 462.2848c2.7648-4.0448 9.0624-2.0992 9.0624 2.816v443.5456c0 2.7648 2.2528 4.9664 4.9664 4.9664h407.7568c2.7648 0 4.9664-2.2528 4.9664-4.9664V462.3872c0-4.608 5.7344-6.7584 8.7552-3.2256L793.6 535.2448c1.536 1.792 4.1472 2.2528 6.1952 1.0752l108.3392-60.416c2.3552-1.3312 3.2256-4.3008 1.9456-6.7072l-132.4544-235.1616c-0.512-0.4608-0.9728-0.9216-1.4848-1.4336L633.344 163.584l-58.0096-56.4736s-25.0368-1.024-116.7872-1.024c-13.824 8.0384-52.8896 52.1728-68.3008 59.4944-67.4816 31.9488-141.7216 55.808-149.1456 60.4672l-1.536 1.6896-125.952 238.4384c-1.1264 2.2528-0.3584 5.0688 1.792 6.4512z" fill="#F7C478" /><path d="M916.7872 465.4592l-132.4544-235.1616c-0.3584-0.6656-0.8192-1.2288-1.3824-1.7408l-1.28-1.2288s0-0.0512-0.0512-0.0512c0 0-0.0512 0-0.0512-0.0512l-0.1024-0.1024c-0.5632-0.5632-1.28-1.024-1.9968-1.3824l-137.6768-66.6112-61.2352-57.6512c-1.4336-1.3312-3.328-2.0992-5.2736-2.0992H455.7824c-0.9216 0-1.8432 0.2048-2.6624 0.512-0.0512 0-0.1024 0.0512-0.2048 0.0512-0.8192 0.3072-1.5872 0.8192-2.2016 1.3824-0.0512 0.0512-0.1024 0.0512-0.1536 0.1024L388.3008 159.1296c-44.288 20.992-92.7232 38.4512-121.7536 48.896-18.7392 6.7584-26.4704 9.5744-29.5936 11.52-0.5632 0.3584-1.1776 0.8704-1.6384 1.3824l-1.4848 1.5872c-0.256 0.3072-0.4608 0.6656-0.6656 0.9728-0.1024 0.1536-0.256 0.3072-0.3584 0.512-0.0512 0.0512-0.0512 0.1024-0.1024 0.1536l-125.952 238.5408c-2.9696 5.888-1.024 12.9536 4.5568 16.4352l114.944 72.0896c5.7856 3.6352 13.312 2.048 17.2032-3.584l50.2784-73.7792v434.7904c0 6.9632 5.6832 12.6464 12.6464 12.6464h407.7568c6.9632 0 12.6464-5.6832 12.6464-12.6464V469.6576l60.928 70.656c3.8912 4.5056 10.5472 5.6832 15.7696 2.7648l108.3392-60.416c6.0416-3.3792 8.2944-11.008 4.9664-17.2032zM495.8208 252.2112h37.1712v132.7104h-37.1712V252.2112z m70.2976-113.3568H463.4624v-24.0128h102.6048v24.0128z m-102.656 15.36h102.6048v11.7248c0 32.768-16.9984 56.3712-50.5856 70.144-41.0112-22.8352-52.0704-53.5552-52.0704-68.4032v-13.4656z m82.3296 82.6368c28.672-20.6848 35.6864-48.7936 35.6864-70.912v-42.4448l48.2816 45.4144v67.9424h-83.968zM400.2816 168.9088l47.8208-44.2368v42.9568c0 4.4032 1.3312 38.9632 40.6528 69.2224H400.2816V168.9088zM286.0032 457.984l-53.76 78.848-110.592-69.376 118.272-224.0512c15.2576 26.5728 51.1488 100.352 53.7088 209.408-3.0208 0.6656-5.7856 2.4576-7.6288 5.1712z m425.5232 447.9488H309.1456v-440.832c0-128.6656-44.3904-211.0976-58.9824-234.7008 5.0688-1.9968 13.1584-4.9152 21.5552-7.936 27.136-9.7792 71.1168-25.6512 113.2032-44.8512v66.9184c0 4.2496 3.4304 7.68 7.68 7.68h87.8592v140.3904c0 4.2496 3.4304 7.68 7.68 7.68h52.5312c4.2496 0 7.68-3.4304 7.68-7.68V252.2112h89.088c4.2496 0 7.68-3.4304 7.68-7.68V177.8176l119.04 57.6c-15.5136 21.2992-52.6848 86.9376-52.6848 226.9696v443.5456z m86.4768-377.344l-64.256-74.496c-1.8432-2.0992-4.1984-3.4816-6.7584-4.096 2.048-123.6992 34.7136-183.9104 48.5888-203.9808l126.464 224.512-104.0384 58.0608z" fill="#FFFFFF" /><path d="M515.0208 277.4016c-5.3248 0-9.6768 4.352-9.6768 9.6768s4.352 9.6768 9.6768 9.6768 9.6768-4.352 9.6768-9.6768-4.3008-9.6768-9.6768-9.6768zM515.0208 335.4624c-5.3248 0-9.6768 4.352-9.6768 9.6768s4.352 9.6768 9.6768 9.6768 9.6768-4.352 9.6768-9.6768-4.3008-9.6768-9.6768-9.6768z" fill="#FFFFFF" /></svg>