<?xml version="1.0" standalone="no"?><!DOCTYPE svg PUBLIC "-//W3C//DTD SVG 1.1//EN" "http://www.w3.org/Graphics/SVG/1.1/DTD/svg11.dtd"><svg class="icon" width="200px" height="200.00px" viewBox="0 0 1024 1024" version="1.1" xmlns="http://www.w3.org/2000/svg"><path fill="#d81e06" d="M184.28 417.89a35 35 0 0 1-35-35c0-89.29 72.64-161.89 161.93-161.89a35 35 0 1 1 0 70 92 92 0 0 0-91.93 91.93 35 35 0 0 1-35 34.96z"  /><path fill="#d81e06" d="M724.73 142.47A229.36 229.36 0 0 1 887 534l-0.46 0.44-1.21 1.18-50.13 49.23 0.47 0.48-276.14 276.08a68.7 68.7 0 0 1-97.15 0l-325.3-325.29A229.37 229.37 0 0 1 461.3 211.59l49.86 50.46L561 211.29l1.18-1.21 0.44-0.46a227.89 227.89 0 0 1 162.16-67.15M724.73 72.47a298.4 298.4 0 0 0-211.68 87.68c-0.7 0.7-1.38 1.41-2.07 2.12a299.37 299.37 0 0 0-423.37 0c-116.91 116.91-116.91 306.46 0 423.37l325.3 325.3a138.7 138.7 0 0 0 196.14 0l325.3-325.3c0.7-0.7 1.42-1.37 2.12-2.07 116.91-116.91 116.91-306.46 0-423.37a298.42 298.42 0 0 0-211.74-87.73z"  /></svg>