<?xml version="1.0" standalone="no"?><!DOCTYPE svg PUBLIC "-//W3C//DTD SVG 1.1//EN" "http://www.w3.org/Graphics/SVG/1.1/DTD/svg11.dtd"><svg class="icon" width="200px" height="200.00px" viewBox="0 0 1024 1024" version="1.1" xmlns="http://www.w3.org/2000/svg"><path d="M762.3168 231.936c-1.024-1.0752-2.1504-1.8432-3.2768-2.304-2.6112-8.3968-10.7008-15.6672-24.5248-22.1696-11.6224-5.4784-35.2256-14.7456-70.144-27.648 1.5872-1.3824 2.816-2.9696 3.072-5.0176 0.4608-3.1232-1.2288-6.3488-5.8368-11.1104-1.0752-1.1264-2.8672-3.1232-5.2736-5.7856-31.3344-34.7648-76.032-80.8448-103.168-80.8448H550.7584c-17.7152 0-114.432 3.328-125.3888 4.9152l-4.3008 1.28c-0.4608 0.1536-11.6736 3.6864-12.9536 12.2368-3.2256 24.8832-26.9312 66.3552-30.9248 73.216-43.3152 14.4384-98.2528 36.864-117.504 62.6176-0.3584 0.256-0.768 0.6144-1.1264 1.024-1.3824 1.9456-2.7136 3.8912-4.0448 5.9392l-11.008 14.8992 4.1472-3.4816C161.8944 403.712 147.0464 839.1168 147.0464 843.52c0 9.8816 4.7104 14.7456 9.3696 17.1008l3.1744 71.0144c0.3072 6.3488 6.0416 11.4176 12.8512 11.4176h0.3072l73.3184-1.6896c3.5328-0.1024 6.7584-1.4336 9.1648-3.84 2.304-2.304 3.4816-5.3248 3.3792-8.448l-2.816-78.1312c7.7824-7.0144 7.5264-21.248 7.3216-33.8944-0.0512-1.9456-0.0512-3.8912-0.0512-5.7344 0-15.0016 9.9328-160.5632 23.3472-272.8448 0.7168 21.504 1.0752 38.144 1.0752 49.7152l0.0512 206.1824c-0.1024 0.5632-1.2288 13.9264 11.6736 22.528v53.4528c0 11.9808 10.5984 21.76 23.552 21.76h376.832c13.0048 0 23.6032-9.7792 23.6032-21.76v-52.8896c8.3456-4.9152 12.6976-12.3904 12.6976-21.8624v-196.096c0-0.4096-0.4096-27.7504-0.6656-59.4944 13.4144 112.3328 23.1936 256.4096 23.1424 271.2576 0 1.8432-0.0512 3.7376-0.0512 5.6832-0.2048 12.6976-0.4608 26.9312 7.3728 33.9456l-2.816 78.1312c-0.1024 3.1744 1.1264 6.144 3.4304 8.448 2.3552 2.4064 5.5808 3.7376 9.1136 3.84l73.3696 1.6896h0.3072c6.8096 0 12.544-5.0688 12.8512-11.4176l3.1744-71.0144c4.6592-2.3552 9.3696-7.2192 9.3184-17.1008-0.256-4.864-17.7664-477.952-112.128-611.5328z" fill="#9499CF" /><path d="M766.1568 229.5808c-0.2048-0.256-0.4096-0.5632-0.6656-0.8192-0.9216-0.9728-1.8944-1.792-2.9696-2.4576-3.5328-8.8576-12.1344-16.4352-26.2656-23.0912-11.1616-5.2736-32.9728-13.8752-64.8192-25.7024 0.2048-0.6656 0.4096-1.3824 0.512-2.1504 0.8192-5.7856-3.0208-10.5984-7.2192-15.0016-1.0752-1.1264-2.8672-3.1232-5.2736-5.7856-34.7136-38.5024-78.2336-82.5344-106.6496-82.176-0.256 0-0.5632 0.1024-0.8192 0.1024-0.3584-0.0512-0.7168-0.1024-1.1264-0.1024-14.9504 0-114.0224 3.2256-125.44 4.8128-1.1776 0.1536-2.2528 0.6144-3.1744 1.2288-0.768 0-1.536 0.1024-2.2528 0.3072-1.4848 0.4608-14.336 4.7616-16.0768 16.0256-2.9184 22.6816-23.8592 60.2624-29.4912 69.9904-43.0592 14.4896-97.536 36.9664-117.6576 63.1296-0.3072 0.3072-0.6656 0.512-0.9728 0.8192-0.256 0.256-0.4608 0.512-0.6656 0.8192-96.3584 136.448-112.4864 609.3312-112.4864 613.888 0 10.1376 4.3008 15.8208 7.8848 18.7904 0.512 0.4096 1.024 0.768 1.5872 1.1264l3.072 68.4032c0.4096 8.7552 8.0896 15.7696 17.2032 15.7696h0.4096l73.3696-1.6896c4.7104-0.1024 9.216-2.0992 12.3904-5.4272 3.0208-3.1744 4.5568-7.3216 4.4032-11.5712l-2.7136-75.8784c7.7312-8.6528 7.5264-22.9376 7.2704-35.6864-0.0512-2.0992-0.1024-4.1472-0.1024-6.0928 0-11.8784 6.2464-106.3936 15.616-201.0624v184.064c-0.2048 2.6624-0.3584 12.5952 7.424 21.3504 1.28 1.4336 2.7136 2.6624 4.2496 3.84v50.7904c0 14.5408 12.544 26.3168 27.9552 26.3168h376.8832c15.4112 0 27.9552-11.8272 27.9552-26.3168v-50.432c1.3312-0.9216 2.6112-1.8944 3.7888-2.9696 5.8368-5.4784 8.9088-12.8512 8.9088-21.3504v-165.1712c8.2432 87.5008 13.6704 169.8304 13.6704 180.8384 0 1.9456-0.0512 3.9936-0.1024 6.0928-0.256 12.7488-0.4608 27.0336 7.2704 35.6864l-2.7136 75.8784c-0.1536 4.3008 1.4336 8.3968 4.4032 11.5712 3.1744 3.328 7.68 5.3248 12.3904 5.4272l73.3696 1.6896h0.4096c9.1648 0 16.8448-7.0144 17.2032-15.7696l3.072-68.352c0.512-0.3584 1.0752-0.7168 1.5872-1.1264 3.6352-2.9696 7.936-8.6528 7.8848-18.7904-0.0512-4.4544-16.1792-477.3376-112.4864-613.7856z m-19.6608-0.6656c-6.3488 6.6048-10.496 19.2-13.0048 29.9008 0 0.1024-0.0512 0.1536-0.0512 0.256v0.0512c0 0.1024-0.256 1.2288-0.6144 3.2768-3.4816 19.6096-20.48 124.2112-8.9088 225.024-0.1536 46.2848 0.8704 111.5648 0.9216 112.0768v196.0448c0 4.3008-1.28 7.5264-4.0448 10.1376-1.792 1.6896-4.096 3.0208-6.6048 4.0448-0.1536 0.0512-0.256 0.1024-0.4096 0.1536-5.0176 1.9456-10.8032 2.816-15.4624 3.072h-0.4096c-0.9728 0.0512-1.9456 0.1024-2.7648 0.1024h-0.7168c-0.8192 0-1.5872 0-2.1504-0.0512h-177.3568l5.9392-439.8592c13.3632-19.2 79.5136-112.5888 80.2304-113.5616 0.0512-0.0512 0.0512-0.1024 0.0512-0.1536 1.2288-1.8432 2.2016-3.7376 2.9184-5.8368 4.5568-13.056 27.8016-52.4288 53.1968-63.8976 0.256-0.1024 0.512-0.256 0.768-0.4096l0.3072-0.2048c35.2768 12.9536 59.9552 22.6816 71.424 28.0576 8.192 3.8912 13.7728 7.8336 16.7424 11.776zM321.5872 812.8l-1.6384-0.1536c-5.4272-0.5632-10.0352-1.9456-13.6704-4.096-0.3584-0.2048-0.768-0.3584-1.1776-0.512-1.1264-0.768-2.1504-1.5872-3.0208-2.5088-4.1984-4.5568-3.7888-9.984-3.7888-10.0864 0.0512-0.3072 0.0512-0.6144 0.0512-0.9216v-206.4896c0-17.8176-0.8704-47.7184-2.5088-88.8832l0.6144-4.7616c0.256-1.8944 0.512-3.7888 0.7168-5.6832 0.2048-1.6384 0.3584-3.2768 0.512-4.864 0.2048-1.9968 0.4608-3.9424 0.6144-5.9392 0.1536-1.536 0.256-3.1232 0.4096-4.6592 0.2048-2.048 0.3584-4.096 0.512-6.144l0.3072-4.352 0.4608-6.4512c0.1024-1.3824 0.1536-2.7648 0.2048-4.1472 0.1024-2.2016 0.256-4.4032 0.3584-6.6048l0.1536-3.7888c0.1024-2.304 0.1536-4.608 0.256-6.912 0.0512-1.1264 0.0512-2.2528 0.0512-3.3792l0.1536-7.168v-3.072c0-2.4576 0.0512-4.9152 0.0512-7.3728v-2.4576c0-2.6624-0.0512-5.2736-0.0512-7.8848 0-0.512 0-1.0752-0.0512-1.5872l-0.1536-8.5504c0-0.4096-0.0512-0.8704-0.0512-1.28-2.0992-72.9088-13.4144-130.3552-13.568-131.1744v-0.0512c-0.256-1.28-0.5632-2.56-0.8704-3.8912-0.0512-0.1536-0.0512-0.3072-0.1024-0.4608-2.304-9.728-5.7856-20.1216-10.8544-26.368 17.2032-15.9232 52.1216-33.1776 100.3008-49.6128 23.7056 45.6192 80.2816 64.9728 106.5472 71.6288 11.7248 14.2848 19.9168 72.96 22.784 111.8208-0.1024 1.792 0.0512 4.096 0.4096 6.8608l-5.9392 442.0608H326.912c-1.9456 0.1536-3.6352 0.0512-5.3248-0.1024z m242.176-573.3376l0.1536 0.1536c1.4336 1.1776 2.8672 2.4064 4.2496 3.584 0.1024 0.1024 0.2048 0.1536 0.256 0.256 1.2288 1.024 2.5088 2.048 3.6864 3.072l1.792 1.4848c0.4096 0.3072 0.768 0.6656 1.1776 0.9728 3.4816 2.9184 6.7072 5.5296 9.216 7.6288-10.6496 15.0016-39.3728 55.6544-58.9824 83.456 8.2944-40.6016 19.1488-90.2656 25.6-111.4624 0.0512 0.0512 0.1536 0.1024 0.2048 0.2048 3.7376 3.1232 8.1408 6.8608 12.6464 10.6496z m-48.6912 74.2912c-4.096-28.0576-10.7008-58.3168-21.0432-71.3216 0.1024-6.0416 0.9216-13.9264 2.1504-22.4768 12.544 1.9456 25.7024 3.0208 39.2704 3.0208h1.2288c-6.2464 20.0192-14.8992 58.88-21.6064 90.7776z m132.9664-148.8384c2.56 2.8672 4.5056 5.0176 5.632 6.1952 0.7168 0.768 1.28 1.3824 1.6896 1.8944-0.9216 0.5632-1.9456 1.1776-2.8672 1.6896l-2.048 1.1776c-27.0848 12.4928-50.2272 48.3328-58.6752 66.9696-5.2736-4.352-12.4928-10.3424-19.4048-16.128-0.5632-0.4608-1.1264-0.9728-1.6896-1.4336-0.7168-0.6144-1.4336-1.2288-2.1504-1.792-0.9216-0.768-1.8432-1.536-2.7136-2.304-0.4608-0.3584-0.9216-0.768-1.3312-1.1264-1.28-1.0752-2.5088-2.1504-3.6352-3.1232-0.0512-0.0512-0.1536-0.1024-0.2048-0.1536-2.5088-2.1504-4.5568-3.9936-6.0416-5.376l-0.2048-0.2048c2.1504-9.2672 6.2464-18.5344 10.1888-27.648 3.0208-6.912 5.8368-13.4144 7.8848-19.8656 5.7856-18.2784-2.8672-53.8112-8.448-73.1648 18.3296 7.7824 46.4384 32.7168 84.0192 74.3936z m-90.0608-5.9392c-1.792 5.7344-4.5056 11.8784-7.3216 18.3808-4.0448 9.3184-8.4992 19.5072-11.008 30.1568-14.2848 0.2048-28.0064-0.7168-41.0112-2.7136 3.3792-18.944 7.7312-37.376 9.9328-43.1616 2.6112-6.8096 0.8704-11.4688-1.024-14.1824-4.9152-7.0144-14.848-7.5264-26.368-7.3728-21.0944-3.0208-35.9936-10.4448-44.288-22.1184-6.7584-9.472-7.6288-19.8656-7.4752-25.6512 15.4624-1.3824 95.232-4.1472 117.9648-4.4544 5.6832 18.5344 15.36 56.0128 10.5984 71.1168z m-141.7728-48.9472c1.536 5.3248 3.9936 11.008 7.936 16.5888 10.9056 15.4624 29.5936 25.1392 55.4496 28.7232 0.4096 0.0512 0.768 0.1024 1.1776 0.0512 2.6624-0.0512 10.0864-0.1536 13.4144 0.768-3.9424 10.3936-13.312 52.992-15.2064 79.2576-26.5216-7.6288-72.3456-25.9072-90.7264-63.8464 5.632-9.7792 21.1968-38.0416 27.9552-61.5424zM247.3472 929.8944c-0.1536 0.2048-0.6656 0.6144-1.5872 0.6144l-73.3696 1.6896c-1.1776 0.0512-1.9456-0.6656-1.9456-1.0752l-2.816-63.4368c2.9184 0 5.0176-0.3584 5.5296-0.4608h0.0512c0.512-0.1024 51.0464-8.3968 69.5808-7.4752 0.768 0.0512 1.536 0.0512 2.2528 0l2.5088 69.6832c0.0512 0.1024-0.0512 0.256-0.2048 0.4608z m4.7104-118.6816c0 2.048 0.0512 4.1984 0.1024 6.4 0.2048 8.96 0.4096 21.0944-3.328 25.1904-0.3072 0.1536-0.5632 0.256-0.8704 0.4608-0.6656 0.4608-1.4848 0.9216-2.7648 1.0752-0.512 0.0512-0.9728 0.1024-1.6384 0.0512-1.28-0.0512-2.6624-0.1024-4.1472-0.1024-22.2208 0.1024-66.7136 7.424-68.8128 7.7824-0.9216 0.1536-5.12 0.512-8.3968-0.6656-0.256-0.1024-0.512-0.1024-0.768-0.2048a4.93056 4.93056 0 0 1-1.28-0.8192c-0.5632-0.4608-2.304-1.8944-2.2528-6.912 0.1024-52.992 23.296-474.7264 107.0592-601.2416 1.7408 3.2256 3.7376 8.6528 5.376 14.5408 0 0.1024 0.0512 0.1536 0.0512 0.256l0.768 2.9696 0.1536 0.5632c0.256 1.0752 0.512 2.0992 0.7168 3.1744 0 0.1024 0.0512 0.2048 0.0512 0.256 0 0.0512 0.0512 0.1536 0.0512 0.3072 0 0.0512 0 0.1024 0.0512 0.1536 0.0512 0.2048 0.1024 0.512 0.1536 0.768 0 0.1536 0.0512 0.256 0.0512 0.3584 0.1024 0.4608 0.2048 1.024 0.3072 1.6384v0.1024c3.1744 17.4592 16.9984 99.8912 11.8784 187.1872 0 0.3072-0.0512 0.6656-0.0512 0.9728-0.1536 2.9184-0.4096 5.888-0.6144 8.8064-0.0512 0.5632-0.0512 1.1776-0.1024 1.7408l-0.6144 7.168-0.3072 3.3792c-0.1536 1.7408-0.3584 3.4304-0.5632 5.1712-0.2048 1.792-0.3584 3.584-0.5632 5.376 0 0.1536-0.0512 0.3072-0.0512 0.4096-0.4096 3.3792-0.8192 6.7072-1.28 10.0352-15.872 114.944-28.3648 296.7552-28.3648 313.6512z m58.0096 59.0336v-43.6736a67.2768 67.2768 0 0 0 9.3696 1.4336l2.048 0.1536c1.5872 0.1024 3.2256 0.1536 4.9152 0.1536h173.0048l-0.7168 52.8896H322.6624c-6.9632 0.0512-12.5952-4.864-12.5952-10.9568z m402.0736 0c0 6.0416-5.632 10.9568-12.5952 10.9568h-185.5488l0.7168-52.8896h177.6128c0.5632 0.0512 1.4336 0.0512 2.7136 0.0512 3.7888 0 10.24-0.3072 17.152-1.9968v43.8784z m28.5696-372.48c-0.512-3.6864-0.9728-7.424-1.4336-11.1616v-0.3584c0-0.3072 0-0.6144-0.0512-0.9216-9.6768-84.736 1.28-172.4928 6.6048-207.36 0-0.1024 0.0512-0.2048 0.0512-0.3072 0.1536-0.9728 0.3072-1.8432 0.4096-2.7136 0.1024-0.8192 0.256-1.5872 0.3584-2.3552 0-0.1024 0.0512-0.256 0.0512-0.3584 0.9216-5.7856 1.5872-9.2672 1.7408-10.0352 0.256-1.0752 0.512-2.1504 0.8192-3.2256l0.3072-1.024c0.2048-0.8192 0.4608-1.5872 0.7168-2.4064l0.3072-0.9216c0.3072-0.8704 0.5632-1.792 0.8704-2.6112l0.1536-0.4608c1.3824-3.9936 2.9184-7.3728 4.2496-9.6256 84.0192 126.0032 107.264 548.608 107.3664 601.7024 0 4.9664-1.6896 6.4-2.2528 6.912-0.3584 0.3072-0.8192 0.5632-1.28 0.8192-0.256 0.0512-0.512 0.1024-0.768 0.2048-3.1232 1.1776-7.0656 0.8704-8.3968 0.6656h-0.1024c-0.256-0.0512-1.2288-0.2048-2.7136-0.4608-0.256-0.0512-0.5632-0.1024-0.8704-0.1536-0.6656-0.1024-1.3312-0.2048-2.0992-0.3072-0.1536 0-0.3072-0.0512-0.512-0.1024-0.9216-0.1536-1.8944-0.3072-2.9696-0.4608l-1.1264-0.1536c-0.9728-0.1536-1.9968-0.3072-3.1232-0.4608l-1.1264-0.1536c-1.1776-0.1536-2.4064-0.3584-3.6864-0.512l-1.1264-0.1536c-1.3312-0.2048-2.6624-0.3584-4.096-0.5632l-1.28-0.1536c-1.3824-0.2048-2.7648-0.3584-4.1984-0.5632-0.512-0.0512-1.024-0.1536-1.536-0.2048-1.3824-0.1536-2.7648-0.3584-4.1472-0.512-0.5632-0.0512-1.1264-0.1536-1.6896-0.2048l-4.1472-0.4608c-0.5632-0.0512-1.1264-0.1536-1.7408-0.2048-1.3824-0.1536-2.7136-0.3072-4.096-0.4096-0.6144-0.0512-1.1776-0.1024-1.792-0.2048-1.3312-0.1024-2.6112-0.256-3.8912-0.3584l-1.8944-0.1536c-1.2288-0.1024-2.4064-0.2048-3.6352-0.256l-1.8432-0.1536c-1.1776-0.0512-2.304-0.1536-3.3792-0.2048-0.5632-0.0512-1.1264-0.0512-1.6896-0.1024-1.0752-0.0512-2.0992-0.0512-3.1232-0.0512-0.512 0-1.024-0.0512-1.4848-0.0512h-0.3072c-1.28 0-2.5088 0-3.6352 0.1024-0.6656 0.0512-1.1264 0-1.6384-0.0512a5.7856 5.7856 0 0 1-2.7648-1.0752c-0.256-0.2048-0.5632-0.3072-0.8192-0.4608-3.7376-4.0448-3.5328-16.2304-3.328-25.1904 0.0512-2.2016 0.1024-4.352 0.1024-6.4 0.2048-17.1008-12.288-198.912-28.3136-313.6512z m108.0832 434.432l-73.3696-1.6896c-0.9216 0-1.3824-0.4608-1.5872-0.6144-0.1536-0.1536-0.256-0.3584-0.256-0.512l2.5088-69.6832c0.768 0.0512 1.4848 0 2.2528 0 18.3808-0.8704 68.096 7.2704 69.5808 7.4752h0.1024c0.8192 0.1536 2.816 0.4608 5.5296 0.4608l-2.816 63.4368c0 0.512-0.8192 1.1776-1.9456 1.1264z" fill="#FFFFFF" /><path d="M334.6432 658.1248c-4.2496 0-7.68 3.4304-7.68 7.68v122.2656c0 4.2496 3.4304 7.68 7.68 7.68s7.68-3.4304 7.68-7.68v-122.2656c0-4.2496-3.4304-7.68-7.68-7.68zM689.408 795.7504c4.2496 0 7.68-3.4304 7.68-7.68v-122.2656c0-4.2496-3.4304-7.68-7.68-7.68s-7.68 3.4304-7.68 7.68v122.2656c0 4.1984 3.4304 7.68 7.68 7.68z" fill="#FFFFFF" /></svg>